<?xml version="1.0" encoding="UTF-8" standalone="no"?>
<svg
   viewBox="0 0 50 50"
   width="250px"
   height="250px"
   version="1.1"
   id="svg4"
   sodipodi:docname="search-icon.svg"
   inkscape:version="1.1.2 (0a00cf5339, 2022-02-04)"
   xmlns:inkscape="http://www.inkscape.org/namespaces/inkscape"
   xmlns:sodipodi="http://sodipodi.sourceforge.net/DTD/sodipodi-0.dtd"
   xmlns="http://www.w3.org/2000/svg"
   xmlns:svg="http://www.w3.org/2000/svg">
  <defs
     id="defs8" />
  <sodipodi:namedview
     id="namedview6"
     pagecolor="#ffffff"
     bordercolor="#666666"
     borderopacity="1.0"
     inkscape:pageshadow="2"
     inkscape:pageopacity="0.0"
     inkscape:pagecheckerboard="0"
     showgrid="false"
     inkscape:zoom="2.52"
     inkscape:cx="125"
     inkscape:cy="122.81746"
     inkscape:window-width="1920"
     inkscape:window-height="995"
     inkscape:window-x="0"
     inkscape:window-y="0"
     inkscape:window-maximized="1"
     inkscape:current-layer="svg4" />
  <path
     d="M 21 3 C 11.601563 3 4 10.601563 4 20 C 4 29.398438 11.601563 37 21 37 C 24.355469 37 27.460938 36.015625 30.09375 34.34375 L 42.375 46.625 L 46.625 42.375 L 34.5 30.28125 C 36.679688 27.421875 38 23.878906 38 20 C 38 10.601563 30.398438 3 21 3 Z M 21 7 C 28.199219 7 34 12.800781 34 20 C 34 27.199219 28.199219 33 21 33 C 13.800781 33 8 27.199219 8 20 C 8 12.800781 13.800781 7 21 7 Z"
     id="path2" />
  <path
     style="fill:#ffffff;stroke:#000000;stroke-width:3.1746"
     d="m 181.10941,202.1418 -30.59629,-30.5963 -4.60225,2.55932 c -29.90837,16.63209 -66.67037,13.53233 -93.797062,-7.90895 -3.644577,-2.88072 -10.347921,-9.55766 -13.256093,-13.2039 -24.802686,-31.09731 -24.802686,-74.886633 0,-105.983944 2.908172,-3.646231 9.611516,-10.323183 13.256093,-13.203901 12.793636,-10.112248 27.984517,-16.354136 44.116351,-18.127279 21.545981,-2.368243 44.771461,4.49288 61.892441,18.283864 25.51347,20.551155 36.95377,54.252246 29.18863,85.98454 -2.30496,9.41926 -6.17689,18.16456 -11.74968,26.53833 l -3.39656,5.10372 30.40462,30.15873 30.40461,30.15873 -10.43828,10.41667 c -5.74106,5.72917 -10.52647,10.41667 -10.63426,10.41667 -0.10778,0 -13.96431,-13.76834 -30.79227,-30.5963 z m -65.63322,-37.81148 c 23.79772,-3.94872 43.48507,-20.49359 51.16268,-42.99611 7.20494,-21.11714 3.2715,-44.26146 -10.50484,-61.8104 C 146.10884,46.753261 130.96957,37.960227 114.88095,35.563633 98.928758,33.18736 82.844754,36.647373 69.444444,45.338001 42.143093,63.044 32.172074,98.216647 46.049744,127.86252 c 9.606994,20.52274 29.172819,34.40344 52.164542,37.00741 4.056464,0.45942 12.908784,0.1827 17.261904,-0.53961 z"
     id="path917"
     transform="scale(0.2)" />
</svg>
